<mxfile host="app.diagrams.net" agent="Mozilla/5.0 (Windows NT 10.0; Win64; x64) AppleWebKit/537.36 (KHTML, like Gecko) Chrome/136.0.0.0 Safari/537.36" version="27.0.5">
  <diagram name="Page-1" id="DGG71zATtWD7z8YMUN3X">
    <mxGraphModel grid="1" page="1" gridSize="13" guides="1" tooltips="1" connect="1" arrows="1" fold="1" pageScale="1" pageWidth="2339" pageHeight="3300" math="0" shadow="0">
      <root>
        <mxCell id="0" />
        <mxCell id="1" parent="0" />
        <mxCell id="7sONn3i1XPhJ4O6bEBOq-1" value="&lt;h1 style=&quot;margin-top: 0px;&quot;&gt;Data Integration Model&lt;/h1&gt;" style="text;html=1;whiteSpace=wrap;overflow=hidden;rounded=0;" vertex="1" parent="1">
          <mxGeometry x="-1801" y="-1391" width="337" height="41" as="geometry" />
        </mxCell>
        <mxCell id="7sONn3i1XPhJ4O6bEBOq-2" value="&lt;font&gt;&lt;b&gt;crm_cust_info&lt;/b&gt;&lt;/font&gt;" style="swimlane;fontStyle=0;childLayout=stackLayout;horizontal=1;startSize=30;horizontalStack=0;resizeParent=1;resizeParentMax=0;resizeLast=0;collapsible=1;marginBottom=0;whiteSpace=wrap;html=1;rounded=1;fillColor=#dae8fc;strokeColor=#6c8ebf;fontSize=16;" vertex="1" parent="1">
          <mxGeometry x="-1411" y="-880" width="195" height="90" as="geometry">
            <mxRectangle x="55" y="80" width="54" height="30" as="alternateBounds" />
          </mxGeometry>
        </mxCell>
        <mxCell id="7sONn3i1XPhJ4O6bEBOq-3" value="&lt;font&gt;cst_id&lt;/font&gt;" style="text;strokeColor=none;fillColor=none;align=left;verticalAlign=middle;spacingLeft=4;spacingRight=4;overflow=hidden;points=[[0,0.5],[1,0.5]];portConstraint=eastwest;rotatable=0;whiteSpace=wrap;html=1;fontSize=16;" vertex="1" parent="7sONn3i1XPhJ4O6bEBOq-2">
          <mxGeometry y="30" width="195" height="30" as="geometry" />
        </mxCell>
        <mxCell id="9zTkXWTs9vu_qWEHWRh6-18" value="&lt;font&gt;cst_key&lt;/font&gt;" style="text;strokeColor=none;fillColor=none;align=left;verticalAlign=middle;spacingLeft=4;spacingRight=4;overflow=hidden;points=[[0,0.5],[1,0.5]];portConstraint=eastwest;rotatable=0;whiteSpace=wrap;html=1;fontSize=16;" vertex="1" parent="7sONn3i1XPhJ4O6bEBOq-2">
          <mxGeometry y="60" width="195" height="30" as="geometry" />
        </mxCell>
        <mxCell id="7sONn3i1XPhJ4O6bEBOq-6" value="Customer Information" style="text;html=1;align=center;verticalAlign=middle;whiteSpace=wrap;rounded=0;fontSize=16;" vertex="1" parent="1">
          <mxGeometry x="-1411" y="-910" width="195" height="30" as="geometry" />
        </mxCell>
        <mxCell id="9zTkXWTs9vu_qWEHWRh6-1" value="&lt;font&gt;&lt;b&gt;crm_prd_info&lt;/b&gt;&lt;/font&gt;" style="swimlane;fontStyle=0;childLayout=stackLayout;horizontal=1;startSize=30;horizontalStack=0;resizeParent=1;resizeParentMax=0;resizeLast=0;collapsible=1;marginBottom=0;whiteSpace=wrap;html=1;rounded=1;fillColor=#dae8fc;strokeColor=#6c8ebf;fontSize=16;" vertex="1" parent="1">
          <mxGeometry x="-1411" y="-1052" width="195" height="60" as="geometry">
            <mxRectangle x="55" y="80" width="54" height="30" as="alternateBounds" />
          </mxGeometry>
        </mxCell>
        <mxCell id="9zTkXWTs9vu_qWEHWRh6-2" value="&lt;font&gt;prd_key&lt;/font&gt;" style="text;strokeColor=none;fillColor=none;align=left;verticalAlign=middle;spacingLeft=4;spacingRight=4;overflow=hidden;points=[[0,0.5],[1,0.5]];portConstraint=eastwest;rotatable=0;whiteSpace=wrap;html=1;fontSize=16;" vertex="1" parent="9zTkXWTs9vu_qWEHWRh6-1">
          <mxGeometry y="30" width="195" height="30" as="geometry" />
        </mxCell>
        <mxCell id="9zTkXWTs9vu_qWEHWRh6-3" value="Product Information" style="text;html=1;align=center;verticalAlign=middle;whiteSpace=wrap;rounded=0;fontSize=16;" vertex="1" parent="1">
          <mxGeometry x="-1411" y="-1082" width="195" height="30" as="geometry" />
        </mxCell>
        <mxCell id="9zTkXWTs9vu_qWEHWRh6-4" value="&lt;font&gt;&lt;b&gt;crm_sales_details&lt;/b&gt;&lt;/font&gt;" style="swimlane;fontStyle=0;childLayout=stackLayout;horizontal=1;startSize=30;horizontalStack=0;resizeParent=1;resizeParentMax=0;resizeLast=0;collapsible=1;marginBottom=0;whiteSpace=wrap;html=1;rounded=1;fillColor=#dae8fc;strokeColor=#6c8ebf;fontSize=16;" vertex="1" parent="1">
          <mxGeometry x="-1788" y="-984" width="195" height="90" as="geometry">
            <mxRectangle x="55" y="80" width="54" height="30" as="alternateBounds" />
          </mxGeometry>
        </mxCell>
        <mxCell id="9zTkXWTs9vu_qWEHWRh6-5" value="&lt;font&gt;prd_key&lt;/font&gt;" style="text;strokeColor=none;fillColor=none;align=left;verticalAlign=middle;spacingLeft=4;spacingRight=4;overflow=hidden;points=[[0,0.5],[1,0.5]];portConstraint=eastwest;rotatable=0;whiteSpace=wrap;html=1;fontSize=16;" vertex="1" parent="9zTkXWTs9vu_qWEHWRh6-4">
          <mxGeometry y="30" width="195" height="30" as="geometry" />
        </mxCell>
        <mxCell id="9zTkXWTs9vu_qWEHWRh6-9" value="&lt;font&gt;cst_id&lt;/font&gt;" style="text;strokeColor=none;fillColor=none;align=left;verticalAlign=middle;spacingLeft=4;spacingRight=4;overflow=hidden;points=[[0,0.5],[1,0.5]];portConstraint=eastwest;rotatable=0;whiteSpace=wrap;html=1;fontSize=16;" vertex="1" parent="9zTkXWTs9vu_qWEHWRh6-4">
          <mxGeometry y="60" width="195" height="30" as="geometry" />
        </mxCell>
        <mxCell id="9zTkXWTs9vu_qWEHWRh6-6" value="Transactional Details on Sales &amp;amp; Orders" style="text;html=1;align=center;verticalAlign=middle;whiteSpace=wrap;rounded=0;fontSize=16;" vertex="1" parent="1">
          <mxGeometry x="-1788" y="-1022" width="195" height="30" as="geometry" />
        </mxCell>
        <mxCell id="9zTkXWTs9vu_qWEHWRh6-12" style="edgeStyle=orthogonalEdgeStyle;rounded=0;orthogonalLoop=1;jettySize=auto;html=1;exitX=1;exitY=0.5;exitDx=0;exitDy=0;entryX=0;entryY=0.5;entryDx=0;entryDy=0;fontSize=12;startSize=8;endSize=8;" edge="1" parent="1" source="9zTkXWTs9vu_qWEHWRh6-5" target="9zTkXWTs9vu_qWEHWRh6-2">
          <mxGeometry relative="1" as="geometry" />
        </mxCell>
        <mxCell id="9zTkXWTs9vu_qWEHWRh6-13" style="edgeStyle=orthogonalEdgeStyle;rounded=0;orthogonalLoop=1;jettySize=auto;html=1;exitX=1;exitY=0.5;exitDx=0;exitDy=0;entryX=0;entryY=0.5;entryDx=0;entryDy=0;fontSize=12;startSize=8;endSize=8;" edge="1" parent="1" source="9zTkXWTs9vu_qWEHWRh6-9" target="7sONn3i1XPhJ4O6bEBOq-3">
          <mxGeometry relative="1" as="geometry" />
        </mxCell>
        <mxCell id="9zTkXWTs9vu_qWEHWRh6-14" value="&lt;font&gt;&lt;b&gt;erp_cust_az12&lt;/b&gt;&lt;/font&gt;" style="swimlane;fontStyle=0;childLayout=stackLayout;horizontal=1;startSize=30;horizontalStack=0;resizeParent=1;resizeParentMax=0;resizeLast=0;collapsible=1;marginBottom=0;whiteSpace=wrap;html=1;rounded=1;fillColor=#fff2cc;strokeColor=#d6b656;fontSize=16;" vertex="1" parent="1">
          <mxGeometry x="-964.5" y="-910" width="195" height="60" as="geometry">
            <mxRectangle x="55" y="80" width="54" height="30" as="alternateBounds" />
          </mxGeometry>
        </mxCell>
        <mxCell id="9zTkXWTs9vu_qWEHWRh6-15" value="&lt;font&gt;cid&lt;/font&gt;" style="text;align=left;verticalAlign=middle;spacingLeft=4;spacingRight=4;overflow=hidden;points=[[0,0.5],[1,0.5]];portConstraint=eastwest;rotatable=0;whiteSpace=wrap;html=1;fontSize=16;" vertex="1" parent="9zTkXWTs9vu_qWEHWRh6-14">
          <mxGeometry y="30" width="195" height="30" as="geometry" />
        </mxCell>
        <mxCell id="9zTkXWTs9vu_qWEHWRh6-16" value="Extra Customer Information(birth date)" style="text;html=1;align=center;verticalAlign=middle;whiteSpace=wrap;rounded=0;fontSize=16;" vertex="1" parent="1">
          <mxGeometry x="-1010" y="-940" width="286" height="30" as="geometry" />
        </mxCell>
        <mxCell id="9zTkXWTs9vu_qWEHWRh6-20" style="edgeStyle=orthogonalEdgeStyle;rounded=0;orthogonalLoop=1;jettySize=auto;html=1;exitX=1;exitY=0.5;exitDx=0;exitDy=0;entryX=0;entryY=0.5;entryDx=0;entryDy=0;fontSize=12;startSize=8;endSize=8;strokeColor=default;" edge="1" parent="1" source="9zTkXWTs9vu_qWEHWRh6-18" target="9zTkXWTs9vu_qWEHWRh6-15">
          <mxGeometry relative="1" as="geometry" />
        </mxCell>
        <mxCell id="9zTkXWTs9vu_qWEHWRh6-27" value="&lt;font&gt;&lt;b&gt;erp_loc_a101&lt;/b&gt;&lt;/font&gt;" style="swimlane;fontStyle=0;childLayout=stackLayout;horizontal=1;startSize=30;horizontalStack=0;resizeParent=1;resizeParentMax=0;resizeLast=0;collapsible=1;marginBottom=0;whiteSpace=wrap;html=1;rounded=1;fillColor=#fff2cc;strokeColor=#d6b656;fontSize=16;" vertex="1" parent="1">
          <mxGeometry x="-964.5" y="-776" width="195" height="60" as="geometry">
            <mxRectangle x="55" y="80" width="54" height="30" as="alternateBounds" />
          </mxGeometry>
        </mxCell>
        <mxCell id="9zTkXWTs9vu_qWEHWRh6-28" value="&lt;font&gt;cid&lt;/font&gt;" style="text;align=left;verticalAlign=middle;spacingLeft=4;spacingRight=4;overflow=hidden;points=[[0,0.5],[1,0.5]];portConstraint=eastwest;rotatable=0;whiteSpace=wrap;html=1;fontSize=16;" vertex="1" parent="9zTkXWTs9vu_qWEHWRh6-27">
          <mxGeometry y="30" width="195" height="30" as="geometry" />
        </mxCell>
        <mxCell id="9zTkXWTs9vu_qWEHWRh6-29" value="Customer Location(country)" style="text;html=1;align=center;verticalAlign=middle;whiteSpace=wrap;rounded=0;fontSize=16;" vertex="1" parent="1">
          <mxGeometry x="-990.5" y="-806" width="247" height="30" as="geometry" />
        </mxCell>
        <mxCell id="9zTkXWTs9vu_qWEHWRh6-30" style="edgeStyle=orthogonalEdgeStyle;rounded=0;orthogonalLoop=1;jettySize=auto;html=1;exitX=1;exitY=0.5;exitDx=0;exitDy=0;entryX=-0.013;entryY=-0.2;entryDx=0;entryDy=0;entryPerimeter=0;fontSize=12;startSize=8;endSize=8;" edge="1" parent="1" source="9zTkXWTs9vu_qWEHWRh6-18" target="9zTkXWTs9vu_qWEHWRh6-28">
          <mxGeometry relative="1" as="geometry" />
        </mxCell>
        <mxCell id="9zTkXWTs9vu_qWEHWRh6-31" value="&lt;b&gt;erp_px_cat_g1v2&lt;/b&gt;" style="swimlane;fontStyle=0;childLayout=stackLayout;horizontal=1;startSize=30;horizontalStack=0;resizeParent=1;resizeParentMax=0;resizeLast=0;collapsible=1;marginBottom=0;whiteSpace=wrap;html=1;rounded=1;fillColor=#fff2cc;strokeColor=#d6b656;fontSize=16;" vertex="1" parent="1">
          <mxGeometry x="-964.5" y="-1101" width="195" height="60" as="geometry">
            <mxRectangle x="55" y="80" width="54" height="30" as="alternateBounds" />
          </mxGeometry>
        </mxCell>
        <mxCell id="9zTkXWTs9vu_qWEHWRh6-32" value="&lt;font&gt;id&lt;/font&gt;" style="text;align=left;verticalAlign=middle;spacingLeft=4;spacingRight=4;overflow=hidden;points=[[0,0.5],[1,0.5]];portConstraint=eastwest;rotatable=0;whiteSpace=wrap;html=1;fontSize=16;" vertex="1" parent="9zTkXWTs9vu_qWEHWRh6-31">
          <mxGeometry y="30" width="195" height="30" as="geometry" />
        </mxCell>
        <mxCell id="9zTkXWTs9vu_qWEHWRh6-33" value="Product Categories" style="text;html=1;align=center;verticalAlign=middle;whiteSpace=wrap;rounded=0;fontSize=16;" vertex="1" parent="1">
          <mxGeometry x="-977.5" y="-1131" width="221" height="30" as="geometry" />
        </mxCell>
        <mxCell id="9zTkXWTs9vu_qWEHWRh6-34" style="edgeStyle=orthogonalEdgeStyle;rounded=0;orthogonalLoop=1;jettySize=auto;html=1;exitX=1;exitY=0.5;exitDx=0;exitDy=0;entryX=0;entryY=0.5;entryDx=0;entryDy=0;fontSize=12;startSize=8;endSize=8;" edge="1" parent="1" source="9zTkXWTs9vu_qWEHWRh6-2" target="9zTkXWTs9vu_qWEHWRh6-32">
          <mxGeometry relative="1" as="geometry" />
        </mxCell>
        <mxCell id="9zTkXWTs9vu_qWEHWRh6-35" value="" style="rounded=1;whiteSpace=wrap;html=1;arcSize=7;fillColor=none;dashed=1;" vertex="1" parent="1">
          <mxGeometry x="-1820" y="-1170" width="643" height="520" as="geometry" />
        </mxCell>
        <mxCell id="9zTkXWTs9vu_qWEHWRh6-36" value="&lt;font style=&quot;font-size: 30px;&quot;&gt;CRM&lt;/font&gt;" style="rounded=1;whiteSpace=wrap;html=1;fillColor=#dae8fc;strokeColor=#6c8ebf;" vertex="1" parent="1">
          <mxGeometry x="-1572" y="-1194" width="120" height="60" as="geometry" />
        </mxCell>
        <mxCell id="9zTkXWTs9vu_qWEHWRh6-37" value="" style="rounded=1;whiteSpace=wrap;html=1;arcSize=7;fillColor=none;dashed=1;" vertex="1" parent="1">
          <mxGeometry x="-1053" y="-1172" width="376" height="522" as="geometry" />
        </mxCell>
        <mxCell id="9zTkXWTs9vu_qWEHWRh6-38" value="&lt;span style=&quot;font-size: 30px;&quot;&gt;ERP&lt;/span&gt;" style="rounded=1;whiteSpace=wrap;html=1;fillColor=#fff2cc;strokeColor=#d6b656;" vertex="1" parent="1">
          <mxGeometry x="-927" y="-1209" width="120" height="60" as="geometry" />
        </mxCell>
        <mxCell id="9zTkXWTs9vu_qWEHWRh6-39" value="&lt;b style=&quot;&quot;&gt;&lt;font style=&quot;font-size: 16px;&quot;&gt;PRODUCT&lt;/font&gt;&lt;/b&gt;" style="text;html=1;strokeColor=#b85450;fillColor=#f8cecc;align=center;verticalAlign=middle;whiteSpace=wrap;overflow=hidden;rounded=1;" vertex="1" parent="1">
          <mxGeometry x="-1412.75" y="-992" width="196.75" height="33" as="geometry" />
        </mxCell>
        <mxCell id="9zTkXWTs9vu_qWEHWRh6-40" value="&lt;b style=&quot;&quot;&gt;&lt;font style=&quot;font-size: 16px;&quot;&gt;PRODUCT&lt;/font&gt;&lt;/b&gt;" style="text;html=1;strokeColor=#b85450;fillColor=#f8cecc;align=center;verticalAlign=middle;whiteSpace=wrap;overflow=hidden;rounded=1;" vertex="1" parent="1">
          <mxGeometry x="-950.75" y="-1028" width="196.75" height="33" as="geometry" />
        </mxCell>
        <mxCell id="9zTkXWTs9vu_qWEHWRh6-41" value="&lt;font style=&quot;font-size: 16px;&quot;&gt;&lt;b&gt;CUSTOMER&lt;/b&gt;&lt;/font&gt;" style="text;html=1;strokeColor=#82b366;fillColor=#d5e8d4;align=center;verticalAlign=middle;whiteSpace=wrap;overflow=hidden;rounded=1;" vertex="1" parent="1">
          <mxGeometry x="-1412.75" y="-790" width="196.75" height="33" as="geometry" />
        </mxCell>
        <mxCell id="9zTkXWTs9vu_qWEHWRh6-42" value="&lt;font style=&quot;font-size: 16px;&quot;&gt;&lt;b&gt;CUSTOMER&lt;/b&gt;&lt;/font&gt;" style="text;html=1;strokeColor=#82b366;fillColor=#d5e8d4;align=center;verticalAlign=middle;whiteSpace=wrap;overflow=hidden;rounded=1;" vertex="1" parent="1">
          <mxGeometry x="-963.37" y="-716" width="196.75" height="33" as="geometry" />
        </mxCell>
        <mxCell id="9zTkXWTs9vu_qWEHWRh6-43" value="&lt;font style=&quot;font-size: 16px;&quot;&gt;&lt;b&gt;CUSTOMER&lt;/b&gt;&lt;/font&gt;" style="text;html=1;strokeColor=#82b366;fillColor=#d5e8d4;align=center;verticalAlign=middle;whiteSpace=wrap;overflow=hidden;rounded=1;" vertex="1" parent="1">
          <mxGeometry x="-963.37" y="-850" width="196.75" height="33" as="geometry" />
        </mxCell>
        <mxCell id="9zTkXWTs9vu_qWEHWRh6-44" value="&lt;font style=&quot;font-size: 16px;&quot;&gt;&lt;b&gt;SALES&lt;/b&gt;&lt;/font&gt;" style="text;html=1;strokeColor=#9673a6;fillColor=#e1d5e7;align=center;verticalAlign=middle;whiteSpace=wrap;overflow=hidden;rounded=1;" vertex="1" parent="1">
          <mxGeometry x="-1789.75" y="-896.5" width="196.75" height="33" as="geometry" />
        </mxCell>
      </root>
    </mxGraphModel>
  </diagram>
</mxfile>
